<svg width="45" height="44" viewBox="0 0 45 44" fill="none" xmlns="http://www.w3.org/2000/svg">
<rect x="0.5" width="44" height="44" rx="22" fill="#F0F5FF"/>
<path fill-rule="evenodd" clip-rule="evenodd" d="M26.8998 21.2C25.2027 21.2 24.3542 21.2 23.827 20.6728C23.2998 20.1456 23.2998 19.2971 23.2998 17.6C23.2998 15.903 23.2998 15.0544 23.827 14.5272C24.3542 14 25.2027 14 26.8998 14C28.5969 14 29.4454 14 29.9726 14.5272C30.4998 15.0544 30.4998 15.903 30.4998 17.6C30.4998 19.2971 30.4998 20.1456 29.9726 20.6728C29.4454 21.2 28.5969 21.2 26.8998 21.2ZM27.4998 16C27.4998 15.6686 27.2312 15.4 26.8998 15.4C26.5684 15.4 26.2998 15.6686 26.2998 16V17H25.2998C24.9684 17 24.6998 17.2686 24.6998 17.6C24.6998 17.9314 24.9684 18.2 25.2998 18.2H26.2998V19.2C26.2998 19.5314 26.5684 19.8 26.8998 19.8C27.2312 19.8 27.4998 19.5314 27.4998 19.2V18.2H28.4998C28.8312 18.2 29.0998 17.9314 29.0998 17.6C29.0998 17.2686 28.8312 17 28.4998 17H27.4998V16Z" fill="#2F6FED"/>
<path opacity="0.6" d="M30.4998 22.5583C30.4986 23.734 30.4897 24.7332 30.4229 25.5532C30.3453 26.5046 30.1865 27.2997 29.8309 27.96C29.6741 28.2512 29.4813 28.5121 29.2467 28.7467C28.5808 29.4126 27.7324 29.7143 26.6572 29.8588C25.6068 30 24.2606 30 22.5427 30H22.4573C20.7394 30 19.3932 30 18.3428 29.8588C17.2676 29.7143 16.4192 29.4126 15.7533 28.7467C15.163 28.1564 14.8581 27.4216 14.696 26.5101C14.5367 25.6147 14.5076 24.5007 14.5015 23.1174C14.5 22.7655 14.5 22.3934 14.5 22.0008V21.9573C14.5 20.2394 14.5 18.8932 14.6412 17.8428C14.7858 16.7676 15.0874 15.9192 15.7533 15.2533C16.4192 14.5874 17.2676 14.2858 18.3428 14.1412C19.2769 14.0156 20.4788 14.0017 21.9416 14.0002C22.2499 13.9999 22.5 14.2499 22.5 14.5581C22.5 14.8664 22.2498 15.1162 21.9415 15.1165C20.458 15.1181 19.354 15.1316 18.4915 15.2475C17.5401 15.3754 16.9666 15.6187 16.5426 16.0426C16.1187 16.4666 15.8754 17.0401 15.7475 17.9915C15.6175 18.9589 15.6163 20.2302 15.6163 22C15.6163 22.2161 15.6163 22.4252 15.6165 22.6275L16.3616 21.9756C17.0397 21.3823 18.0618 21.4163 18.699 22.0535L21.8913 25.2458C22.4028 25.7573 23.2078 25.827 23.7996 25.4111L24.0215 25.2552C24.873 24.6567 26.0251 24.7261 26.7987 25.4223L28.9051 27.3181C29.1171 26.8728 29.243 26.2878 29.3103 25.4625C29.3736 24.6849 29.3823 23.7404 29.3835 22.5583C29.3838 22.2501 29.6336 22 29.9419 22C30.2501 22 30.5001 22.25 30.4998 22.5583Z" fill="#2F6FED"/>
</svg>
